<mxfile host="app.diagrams.net" agent="Mozilla/5.0 (X11; Linux x86_64; rv:133.0) Gecko/20100101 Firefox/133.0" version="26.0.11">
  <diagram name="Page-1" id="gvtDteRCWwbjxDbuTvsm">
    <mxGraphModel dx="1230" dy="1143" grid="0" gridSize="10" guides="1" tooltips="1" connect="1" arrows="1" fold="1" page="1" pageScale="1" pageWidth="850" pageHeight="1100" math="1" shadow="0">
      <root>
        <mxCell id="0" />
        <mxCell id="1" parent="0" />
        <mxCell id="Lm9_U-SLF60hvCdr4yT4-15" style="edgeStyle=orthogonalEdgeStyle;rounded=0;orthogonalLoop=1;jettySize=auto;html=1;" parent="1" source="Lm9_U-SLF60hvCdr4yT4-3" target="Lm9_U-SLF60hvCdr4yT4-4" edge="1">
          <mxGeometry relative="1" as="geometry" />
        </mxCell>
        <mxCell id="Lm9_U-SLF60hvCdr4yT4-3" value="" style="rounded=0;whiteSpace=wrap;html=1;fillColor=#d5e8d4;strokeColor=#82b366;" parent="1" vertex="1">
          <mxGeometry x="400" y="320" width="40" height="120" as="geometry" />
        </mxCell>
        <mxCell id="Lm9_U-SLF60hvCdr4yT4-16" style="edgeStyle=orthogonalEdgeStyle;rounded=0;orthogonalLoop=1;jettySize=auto;html=1;" parent="1" source="Lm9_U-SLF60hvCdr4yT4-4" target="Lm9_U-SLF60hvCdr4yT4-5" edge="1">
          <mxGeometry relative="1" as="geometry" />
        </mxCell>
        <mxCell id="Lm9_U-SLF60hvCdr4yT4-4" value="" style="rounded=0;whiteSpace=wrap;html=1;fillColor=#d5e8d4;strokeColor=#82b366;" parent="1" vertex="1">
          <mxGeometry x="470" y="335" width="40" height="90" as="geometry" />
        </mxCell>
        <mxCell id="Lm9_U-SLF60hvCdr4yT4-17" style="edgeStyle=orthogonalEdgeStyle;rounded=0;orthogonalLoop=1;jettySize=auto;html=1;entryX=0;entryY=0.5;entryDx=0;entryDy=0;" parent="1" source="Lm9_U-SLF60hvCdr4yT4-5" target="Lm9_U-SLF60hvCdr4yT4-9" edge="1">
          <mxGeometry relative="1" as="geometry" />
        </mxCell>
        <mxCell id="Lm9_U-SLF60hvCdr4yT4-5" value="$$\mathbf{Z}$$" style="rounded=0;whiteSpace=wrap;html=1;fillColor=#fff2cc;strokeColor=#d6b656;" parent="1" vertex="1">
          <mxGeometry x="540" y="351.25" width="20" height="57.5" as="geometry" />
        </mxCell>
        <mxCell id="Lm9_U-SLF60hvCdr4yT4-20" value="" style="edgeStyle=orthogonalEdgeStyle;rounded=0;orthogonalLoop=1;jettySize=auto;html=1;" parent="1" source="Lm9_U-SLF60hvCdr4yT4-8" target="Lm9_U-SLF60hvCdr4yT4-11" edge="1">
          <mxGeometry relative="1" as="geometry" />
        </mxCell>
        <mxCell id="Lm9_U-SLF60hvCdr4yT4-8" value="" style="rounded=0;whiteSpace=wrap;html=1;direction=east;fillColor=#dae8fc;strokeColor=#6c8ebf;" parent="1" vertex="1">
          <mxGeometry x="660" y="320" width="40" height="120" as="geometry" />
        </mxCell>
        <mxCell id="Lm9_U-SLF60hvCdr4yT4-18" style="edgeStyle=orthogonalEdgeStyle;rounded=0;orthogonalLoop=1;jettySize=auto;html=1;entryX=0;entryY=0.5;entryDx=0;entryDy=0;" parent="1" source="Lm9_U-SLF60hvCdr4yT4-9" target="Lm9_U-SLF60hvCdr4yT4-8" edge="1">
          <mxGeometry relative="1" as="geometry" />
        </mxCell>
        <mxCell id="Lm9_U-SLF60hvCdr4yT4-9" value="" style="rounded=0;whiteSpace=wrap;html=1;direction=east;fillColor=#dae8fc;strokeColor=#6c8ebf;" parent="1" vertex="1">
          <mxGeometry x="590" y="335" width="40" height="90" as="geometry" />
        </mxCell>
        <mxCell id="Lm9_U-SLF60hvCdr4yT4-14" style="edgeStyle=orthogonalEdgeStyle;rounded=0;orthogonalLoop=1;jettySize=auto;html=1;entryX=0;entryY=0.5;entryDx=0;entryDy=0;" parent="1" source="Lm9_U-SLF60hvCdr4yT4-10" target="Lm9_U-SLF60hvCdr4yT4-3" edge="1">
          <mxGeometry relative="1" as="geometry" />
        </mxCell>
        <mxCell id="Lm9_U-SLF60hvCdr4yT4-10" value="$$\mathbf{V}$$" style="whiteSpace=wrap;html=1;aspect=fixed;fillColor=#e1d5e7;strokeColor=#9673a6;" parent="1" vertex="1">
          <mxGeometry x="340" y="362.5" width="35" height="35" as="geometry" />
        </mxCell>
        <mxCell id="Lm9_U-SLF60hvCdr4yT4-11" value="$$\mathbf{V}&#39;$$" style="whiteSpace=wrap;html=1;aspect=fixed;fillColor=#e1d5e7;strokeColor=#9673a6;" parent="1" vertex="1">
          <mxGeometry x="720" y="362.5" width="35" height="35" as="geometry" />
        </mxCell>
        <mxCell id="Lm9_U-SLF60hvCdr4yT4-21" value="" style="shape=image;verticalLabelPosition=bottom;labelBackgroundColor=default;verticalAlign=top;aspect=fixed;imageAspect=0;image=data:image/png,iVBORw0KGgoAAAANSUhEUgAAA14AAADYCAIAAAB0u6X9AAAAIGNIUk0AAHomAACAhAAA+gAAAIDoAAB1MAAA6mAAADqYAAAXcJy6UTwAAAAGYktHRAD/AP8A/6C9p5MAAAAQY2FOdgAAFPAAAAWgAAAJAAAAAlxD36p1AAAseUlEQVR42u3d93eTV7ov8L33q95lW7YsFzqmho4pwYGQhBqSUBIgdXLuuWvdH+5/cta69647Z2bOZC6ZGSaQhFADCS3UQOjNoRdjXGVZktWlV++79/1BxhACCcVF5fv5gZEgkMxGlr5+nv3sTYUQBAAACLnjazjXeJ4QsmTCYqPWgAUBgAJEEQ0BAAAAIINhCQAAAAAgQ4MlAADIQEMZAADREACg2x1fwzdnthBC5o95FdEQAAoTGsoAAAAA0A1jKAAAAADQDVVDAAAAAOiGaAgAAAAA3TCGAgDQbf+VA387so4Q8ueP/ug0ObAgAFCAUDUEAAAAgG6oGgIAdBvqGrJy6nJCiAEn1wBAocKEMgAAAAB0Q0MZAAAAALqhoQwA0A0X5QEAIBoCAHTDRXkAAIiGAFBAYlE16E+Hw0o0rETCSjSiRiOKnBKpJJdlfiPhbeMpQsif/qPRbgjp9EyvpwajZLFKVpvGYtNkHrhKdRotxWICQF7CGAoA5K1YVG1tTnrbZL9PDvrTHV5ZTvHML3W/8z3yDtjz5JfBj1J6/0H3z1htmhKXzlmsKSnVuT368gqDVoewCAD5ANEQAPJKa1Pq1vVYW2uqrTkZjajkfgrMvNcJ8VD+I8RskSxWzW+numSCRyNqMqF2P6eE3M+ImciYeVzi0pVX6ssr9CNHmx1FWvxFAECOQjQEgJwny7zhZuLG1diNq9FEnPdkwZ4gaDBKRSVau0NTVKxzFGnsDq3ZIpkt0jP9W8JdSjSihIJKVzDt98uhLsXXLhNCCCU082MmKFJS6tYPrzGNGGWqGmzE3w4A5BZEQwDIVaGgcu1y9Na1eMPteCYFiu7aIDGZpVK3vqxcV1aud7l1VutT7as+fPPg+lN/J4T8x/L/4zA6nua3dPrSvraUr0Nua012eGU1LTIZMZMSDUY2bIRpeI25ZqxZb8BhYQCQAzCGAgA5xueVL54N37wW8/vSQjyoDpotUkW1sWqwsaJKX1TcTy3dEpe2xKUdff9pa1OypTnVdDfR2pJUZBGPqT9fjFy5FCXfkKrBhhGjzBOn2kxmKVuXFgAAVUMAyBFKWlypj5450dXalHo4ERa7tDVjrUOHG0tKdS/4r2gM3L3YcoEQ8sbohQbNix5e03wveeNK9ObVeCKhEkoYJZRRQsiosZYpM+xDhqPXDADZCNEQALKdzyuf+SlUfz4iy1wIIrgQglhsmjHjLSNGm10vnAj7WuOdzD7IWFrmlBFKKaXEZtdMqbVPrrUbTWg0A0AWQTQEgOx152b8pyNdDbfiPWVCvZ6NHG2uGWuprM6xI6mVtLhzK37152jDzTihhFFKGSGETJ5ur51jLy7J9oALAAUC0RAAstGFM+FTx0Id7ameMuHIMeax462DhvVhH7Z3G8pPIqf4zWvxy5fCrU2pniLi8BrTjDnOwcPQZQaAAYZoCADZ5dzJ0NEDwXBIyZQJdXo2fqJ18nT7s5418xyeY0L5RXS0y6d/6rp5NdZTRPRU6ee+Xjx0hAkvAwAYKJhQBoCsoCjiwunwsUP3QyEndodmcq1j7EuWfL2VrtStW/JOaWS+cv50+OeLETnFmxuTG9a1VlYb5swvGjYSAREABgCqhgAw8E4d6zp+OBgJq5lQaLFrZr7sHDvBUjgrkEio50+Fz54KqYqglDBGPZWGeQuLhgxDQASAfoVoCAAD6Up99OAef7AzzYUQnNgcmplznKPHF1AofNivA+KwGtPri0tKsn4KGwDyBqIhAAyMpsbk/l2dLU1JzoXgxGzVzKorrErhk6SS/MyJ0LlTIVUVjFFKycRptrmvF1ms2AIEAH0O0RAA+pvfJ+//3n/zaoxzIQSxOTTTZznHjLewgT7gr5/HUH5bIqGePRG6eDaSTnPGqEZLp89yvPyqU6/HOYgA0IfwPSgA9J9oRDm8L3D+dFgIwTmx2ApuT+HTMxqll+cVTam1nz8dPnsqlE7x44eDF86EZ891zpjjwPoAQB9B1RAA+oOc4j8d7frpcDCdFplzCmfWOWtfdmTVf2T/nGv4HGJR9fD+wI0rUcoIY9Th1C56yzWsBhMqAND7EA0BoM/dvZ3YsckbDimZbYXDakxz3yi2YufcM2q+l/zh+85gIM0Y0WjY9Nn2uvnFWl1+nuwDAAMF0RAA+lAiru7d2Vl/PiIE4VzY7Zr5i0qqh+DOj+d37mT4+NGAmhaUUZtd89riEnTkAaAXIRoCQF+5fDGyd2dnNKIKLiilU2bYa192aDTZW+XK2obyIyJhZc+3vubGZKa/PHiYcdFbpcUuLV5yAPDiEA0BoPcl4nzHN97uGWROil3aBctKS8uy/XC+rJpQ/l1X66OH9weSSZUxKkm0bn7RrLkOxtBfBoAXgr0+ANDLbl2PfftNRzSici6YRGfWOafOsCGy9LrR4y2DhxkP7PHfvBoTXBzc679xNfbOmjJnEcqHAPD8UDUEgF6TlsW+7zrPnQxlioUvTbFNrbXbHPgWtG/dvhHf/11nIqEyRvR6af7i4im1diwLADwfREMA6B3NjcltX3uD/jTnwmiUFr7pGjQM4yb9RE7xw/sDly9GMrsPR4wyL11RarZIWBkAeFaIhgDQCw7t9f94MCi44JwMrzG/trjEYMSlHf2tsSGxb1dnNKIwRk1macly16ixGF4GgGeDaAgAL8TfKW/70tvanBJcSBr2yutF4ydac/T/S26NoTxWOs2P/hC4dK67fDhxqu2NpSU63K0HAE8Ne4AA4Pmd+Sn0w/d+WeacizK3fvE7pXbsLBxQWi17dWHJ0BGmvTs743H1/Olww6342++VVQ1Gcx8AngqqhgDwPOIxdfOG9sY7Cc4FJbT2Zce0WfZcH0POlXMNn0Yywffs9DXcjDNGmERnz3XWvVaEOXEA+F2IhgDwzBrvJLZ+6Y2EFc6F3aFZ8k5ZqTvbzywsTJcvRg/u61TTgkm0eohx+ZoyC+4nBIDfhGgIAM+Ac/HjgeDRAwGuCs7JyDHm15eUaLXYypa9QkFlxzft/s40Y9RkZivWlg/G5DgAPBmiIQA8rWhE2bLRe68hwVUhBJm/2DV+Yl4NwOZTQ/kRB/b4L50NZ2ZTZs91zltQjNczADwWOgsA8FTaWlJf/aM1ElY5Fw6nZukKd0neXdp719+w49JWQkjd8Ll5Fg1fXVA8aIjxu+0dXBHHDgVbmpIr1pYbTSj3AsCj8L4AAL/v7InQ//tjUySkclWMHG15/9OK/MuFeW/YSNOH/1ZZ7NKpqmi4lfjs/95rb01hWQDgEWgoA8BvURWxc0tH/fkIV3P+2EIghCiKOLLff+lchElUo6XLVpaOnYC/UAB4ANEQAJ4oHFI2rW9rbU5lmshvrnAXo1iYF65fie7/3q+kOWN02iz7gjddWBMAyEA0BIDHa76X/PqfbbGIgknkvBQMpHdu9gY605TRymrDux+V485lACCIhgDwWCd/7Nq3q5NzITiZv6hk/KSC6DnmwUV5z2rfrs7LlyKMUatN8+6H5Z4qPV78AAUONQAA+AVFEVs2tu/b1clVYTJJaz+tKJBcWJheX1Iy59UiwUUkrPzjv5rrz0ewJgAFDlVDAHgg3KV8vb6trSXFuSj36JeuKDVbCuiIqzw+1/C33bkR37W9g6uCMTql1r7obWw9BChciIYA0K2tJbVhXUs8xjkXEybZXnmjmKGvUDB8HfLWje3xuMoYrR5sePejcqMJWw8BChGiIQAQQsiV+uiWDe2CC87J60tcYyfk1TUn8DQiEWXHJq/PKzNGncXaNZ94MJAOUIAQDQGAHPkhcGR/gHOh07G3VrkLdhahYBvKPZS02LPTd/NqjDFiMEqrPsSFywAFB+0igIKmKmLrl94j+wKqKmw2zdpPKwp5RjVzUd6OS1uT6WRhroBGS5e8U1o3v5gQmkioG9a1njsVwpcJQGG9D2AJAApWPKZ++Y/WlnspzoWnQr9sVZnBiO1lQCbX2krc2u+3+BJJddcWn9+Xnr+omDGKlQEoBGgoAxSozg554+etXUGFq2LsBOvrS0qwJvCwcJeyY7O3s0NmjA4fZVqxxq3To9EEkP8QDQEK0e0b8c1ftCeTquBk9ryiaTPtWBP4NSUtdm3taLgdZ4yUletXf+Kx2dFrAshziIYABef08dC+XZ2KwhmjC99yjagxY03gSYQgRw8Ezp0MMUYtNmn1J57yCtyYApDPEA0BCsvuHb7Tx0OcC5NJevs9d6lbhzXpUYAX5T2l+guRH77rpIzo9dKbq0rHjMfZRgB5CxtHAAqFnOIb1rVmcmGJS7vmUw9yITyl8ROtK94v12pZKqlu2dD+44Eg1gQgX6FqCFAQQl3Kxs9bfV6Zc1FZbVi2sgwjBb+Gcw1/W9CvfPNFWyymSBIdO8G6bGWppMHYMkC+QTQEyH8tTckv/94aj3GuihGjzQuXuSQJn+jwPCJhZcvG9mAgzRitqNav/thjMuPAI4C8gmgIkOcuX4xs/dIrBOGqmFxrr5tfhDWBFyGn+Nav2ttaUoxRu1Oz9lNPiQs7EwDyB6IhQD47cbRr/3ednAvBSd384sm1NqzJb0BD+Sml03zXFt/dO3HGqMksrflDuacSywWQJ7DZCCBv7dvV2ZMLF73tQi78Xbgo7ylptezt98rGTbRyVcRj6rr/bL55NYZlAcgPiIYAeUhVxeYN7Sd/7OKq0OnY6k88NWNw2gj0stcWlcyY4+SqEFx8vb6t/nwEawKQB9BQBsg3qST/en1b452EqgqnU/v2arfdgRssoK9cvhjd/52PUMIYrXutCJtZAXIdoiFAXolF1X/9rcXXLqs4pAb6S+PtxPbNXsEFY3TiVNvid1yMYQQeIFchGgLkj0BnesO61mAgzbkYP9E6f1EJ1gT6R2tTcvsmr5ziTKLDa0wr3y/XaJEOAXISoiFAnmhtTm78vC0eUzkXk6fZ615DX++Z4aK8FxH0K5s3tkUjCmPUU6n/4L9V6A2oWAPkHnzdAuSD29fj//yvlnhM5aqY9YoTuRD6n7NYs+YTj7NIy7lobU6t+1NzuEvBsgDkHFQNAXLehTPhnZs7BBeck3kLSiZMsWJNng/ONXxxcopv+6q9tSXFGLVYpbWfesrK9VgWgByCaAiQ247+EDi8P8C5IIIseNM1ahwOqYEBpihi5+aOu7fjTCJ6g/TeR+WDhhqxLAC5AtEQIIft2tJx/nQ4c6j10hVlw2tMWBPIEgf2+C+dDTOJUkpWvl8+apwZawKQExANAXJSOs03f+G9dT3GVaHRsbdWlVVWowH6otBQ7l2njoeOHwpQRhiji95yTZlhx5oAZD8chAuQe1JJ/q+/tbS1pFRVmM2ad1aXlZTqsCwvLnNRHiGkbvhcRMMXN32W3WaT9u7s5Fx8v90X6lJeXViMZQHIcoiGADkmFlXXf9bi88qcC7tds/KDcqsNX8iQpUaNs5gsmu1ft3NVHD8cDIeUZatKcSA2QDZDQxkgl4S6lPWftQT9ac5FaZnunTVuo1HCskCW87altn7pTSZVSaIjR5tXflDOcHIaQLZCNATIGf5Oef1fWyJhlati8DDTkuUurRYfsJAbQkHlmw1tkbAiSXR4jXnlB26NBrVDgGyEaAiQG7xtqS/+1hqLqVwVNWMtC94sQVcOcks8pm7e0ObvTEsSrRpsWPMHj06H720Asg6iIUAOaG1KbVjXEo+rgpPa2Y6ZrzixJn0BF+X1NTnFd2zyNjclJUY9VYY1fyg3mrAjAiC74Ds2gGzXcCvxz782x+MqEeT1JS7kQshdOj17Z417xCizykVLU/Lvf2nBZXoA2QZVQ4CsdulcZMcmb+ZQ6zdXlg0biUOt+xDONew3B/f6L54NZy7Te//fKkrdOH0JIFsgGgJkrx8PBg7tDXAuJIktW1VaPRi3jUH++Olo18mjQSZRvYGt/YOnchCyOEBWQDQEyEZCkF1bOi6cCXNVaPXsnffc5RV6LAvkmfOnwof3+5lENVq6Yo175Bhcpgcw8BANAbLR5i/ar/4cVVVhMEjL17pLy9Bu6w9oKPe/yxej+3b5ui/Te9s1pRaX6QEMMFyiAJBdFEV89fe2httxVRVms7Tyg3JnkRbL0j9wUV7/GzvBotXT3dt8nIvvt/mUtKh92YFlARhAmFAGyCKyzDesa71zK66qwunUrv7Yg1wIeW/kKPObK0oFJ1wV+3Z1Htzrx5oADCA0lAGyRTLBv/h/La3NKVyCBwXI25bavKFdlrkk0Sm19oVvuSjOdAcYCIiGAFkhFlXXf9bi88q4BA8KVtCvbN7YFo0ojNHxk6zLVpXiyh+A/odoCDDwQkHln39t7goquAQPClwsqm7Z2ObvTDNGR4zCVcsAAwDREGCAtbemNqxrjUVVrgpcgjewcFFeNpBlvu3L9taWFGO0arBh9ccegxEVdID+g683gIHUcCvx9780RyMKVwUuwQMghOh0bMX75UOHmzgXTXeTn/+5GZfpAfQnVA0BBsyV+ui2L72KwimjS98uHYpL8AYazjXMHkKQQ3v8F8+FmUStNs2H/15R7MK0PkB/QDQEGBg/Hen64ftOzoVWx95+1+2pxGUnAI86ezJ89Ac/k6jByFZ/7KkajLwO0OcQDQH6mxBk93bf2ZMhzoXZolmxptxZjMPnAR7vxrXY7m0+Qgku0wPoH4iGAP1ty4b2K/VRrgpHkXb5WrfVilyYLdBQzk73GhLbN3k5F4zRRW+5pszAZXoAfQhjKAD9J5Xk6z9ruVIfVVVR7NK+95EHuTCrZC7K23FpazKdxGpkj+ohxpXvl0sayrn4frsP16UA9ClEQ4B+Eo2of/9Lc+PthKoKd7n+3Y9wJAfA0yqv0L/7gUenY5yLYweD277yco6WF0CfQEMZoD8E/en1n7WEuhTOhadSv3x1uUaLg3wBno3fl968oS0RV5lEhww3vfuRG5cGAfQ6REOAPtfanNz4eVs8pnIuBg81LV1RigseAJ5PqEvZ9K/uy/Q8lfo1n3pMJlw1DtCbEA0B+tbt6/FN/2pLpwUuwQPoFQ9fpldUrP3w3ytsDuzZBeg1iIYAfaj+fGTHJi9XBedk+mzHLFx2kt1wUV6ukFN865ftba0pxqjVpln7aXmpGyeDAvQO7NIA6Cs/Hghu/9qrqoJzMn9RCXIhQG/R6dl7H3uGjTRxVUTCyt//3HL3dgLLAtArUDUE6H1CkF1bOi6cCXMucAleDsG5hjn3hXb/Mj0iSXTl++U4EBvgxSEaAvS+Tevbrl+JcVXo9OwtXIIH0JdOHw8dOxSgjDBGFy5zTZ2JA7EBXgiiIUBvSiX5xs9bmxqTnAunU/v2arcdG+QB+ti1n6N7d3YKIhijs15xvrqwGGsC8NwQDQF6TTSirv+spbND5lxUVhuWrSzT6bGdN5egoZy77t1Nbt/UzhXBJDp6vOWd1WU4CgDg+eBzC6B3+H3pdf/ZlMmFo8Zalq9xIxfmHFyUl7uqBxve+8ijN0iqKq7WRzd+3paWUfgAeB746ALoBU13E5//qSnUpXBV1L1avHCZCxULgH5WWqZb84nH5tCoqrhzM/6P/2qORVUsC8CzQkMZ4EXdvh7/+l9taZlTQpYuL8MwMsAASsTVbV+3e9tkxqjDqfnov1fandjvC/AMEA0BXsiFM+FdWzpUVWi07K1VZZXV2KAGMMBURezZ2XnjSpRJ1GyR1n7qcXtwSgDA00I0BHh+B/f6jx0MclUYTdLyteUlLi3WBCBLnDoWOn44QBnR66VVH7qHjkA5H+CpIBoCPA9VEVu/9F77Oapy4SzSLl/jttrQtMp5uCgvz9y8Htu9zceFkCS66G3X5Ok48hDg92EMBeCZxWPq+s9arv4cVbnwVOrf+6gcuRAgC42oMa/6sNygl1RFfLfVt3uHD2sC8LtQNQR4Nj6vvPHz1lCXkjmk5vUlJZKEYeQ8gXMN81IkrGz9sj3gTzNGh400rXwfB0sB/BZEQ4BncOdm/Jsv2lNJzlUxe17RNFzJBZAL5BT/bpvv7p04Y7SsXL/6k3KbHZV+gMdDNAR4WudOhXZv71QUziS69O3SIdjVDpA7OBdHfghcOBNmjJrMbO2nFeUVGFsGeAxEQ4Cnsudb3+njIc6F0Si9vdpdWqbDmuQfNJTz3qXzkQPfdzKJUEpXvl8+apwZawLwCOy3APgdcopvWNd6+lhIVUVxiXbNpx7kwnyFi/Ly3kuTrCveL9doGOfimy/afjwYwJoAPALREOC3hEPKuj81374RV7kYMsy0+uMKqxVblAByWNUgw5pPPGaLhnNxaG9g+9deVUX3DOABNJQBnqj5XvLrf7bFIirnYupMx+y5TopZZIC80HOfniTRiirDux+Vmy0SlgWAIBoCPMmZn0K7d/g4F4KT15e4xk6wYE0A8szuHb5rl6OMUatNWvVheUUVNpgCIBoC/IqiiF1bOurPR7gqdHr21iq3pwqTjAD56dTx0PFDASZRjYYuXVE6fpIVawIFDtEQ4BfCXcqmf7W1Nqc4F3a7ZvnacrsDmwsLBS7KK0w3r8d2b/dxLhijk2vtC5e5GPbhQwHDyx/ggeZ7yb/9sSmTCz0V+jV/8CAXAuS9ETXm9z7yGI2SqopzJ0Of/6kpGlGxLFCwUDUE6Hbmp9DenT5VEZyTUeNwA14hwrmGhSwSUbZu7L5Pz2yR3v2ovLIarwEoRIiGAA9tLuSCElo3v2jiNBuWBaDg3grSYvcO363rsczWwwXLXJOn460ACg6iIRS6cJfy1T/bvK0plQujUVq6vLQCpQKAAnbmROj4oaAggjE6fpJ16fJSSYMGAhQQREMoaPcaEt980R6LqpyLUrfurVVunG1WyNBQhu53hsbE91t8iaTKGPVU6t/72GOx4p0BCgWiIRSu08dD+3Z1qgrv3ly4uAS1gQKHCWXoEQkp27/xdnbI2HoIhQYTylCIFEVs2di+51ufonBK6fzFroXLXMiFANDDates/tgzYpSZqyIWUdb/teXsyRCWBQoBqoZQcB7eXGg2S0tXlJVX4ERrAHi8C6fDR34IYOshFA5EQygsDbcSW7/s3lzoLtcvW1VmMmMLEQD8lpZ7yZ1bOhIJlTHq9uhXfeB2FGmxLJCvEA2hUHAuDu8PHDsYzFyLPHGqve61Itx5AABPIxJWvt3s7WiXGaN6PXtnTdmIUWYsC+QlREMoCNGI+s0Xbc2NSa4KpqELlrpGjsbbOjwKYyjwG1RVHP0heOFMiDLCGJ06046D8SEv4RIwyH8NtxJbNrbFY5xzUeLSLV1e5ijCKx8Ano0k0blvFFUNNuz51ifL/PTxUHNjcuX7aC5DvkHVEPIZ5+LwvsCxQ91N5JcmW+teK9ZgCzk8Ac41hKcRiSjffoPmMuQtREPIW5GwsvmL9qbGpOBCq2evLykZUYO3bwDoHUd+CJw72d1cnjbLvuBNF9YE8gOiIeSnOzfjWza2J+Kcc1FSqlu2oszmQBMZAHpTw63499t9sswxuQz5BNEQ8tCB3f7jh7ubyJNr7XXzi7Am8DTQUIZnFYkouzZ3tLelGKM6PX1zZdmY8RYsC+Q0REPIK/5OeetGb1tLSnCh1bFFb7mGDDdhWeApYUIZngPn5Pjh4JmfujLN5fGTrAvfcun1OBkLchVabJA/Th8P7fnWJwThXJR79IuXl1qteIUDQN9ijLw8z1lZrd/zbWcioV46F2m4FX9ntXvQUCMWB3IRqoaQD6IRdftX3obbcc4FJWRGnXPqDDtjmEQGgP6TTPA9O30NN+OMUSaRmXXOV14vwsGHkHMQDSHnXTob2bvLl5k4KSrSLl5eVuLCTnAAGBiXL0YP7fcrMqeMlrp1K9a6S0p1WBbIIYiGkMPCXcr2Td7GO4meiZPZrzhx8z0ADKxISPlue0dbS4oxotWyeQuKp892ULwzQY5ANIScJAQ5eyJ0YLc/leKcC7NFs+DNkurB2NkDLwRjKNBbOBdnT4ZPHAlyIRij1UOMy9e4LVYJKwPZD5v0IfeEgsq2r9ub7iYzxcJR4yzz3ijWGzAPCADZgjE6baZ98FDjd9u8wYDSeCfxl//VuOBN1/hJViwOZDlUDSHHXDob2bPTl0pwzoVOz17DHSfQe3CuIfQ6VRHHDgd77k0ZOsK0bFUZyoeQzRANIWckE3zXlo6rP0cFJ1yIQUOMbyx1mS14hwWAbNfUmNzzrS8aUTLXLr+2pHjydDuWBbIToiHkhjs34zs2eSNhlXNhMEhzXy8aNQ5XDgBAzlDS4viRB+XDQUONS5eXOotxnAJkHURDyHaRsLLnW9+1n2OZnYUjx5jnvVFsNKFYCL0PDWXoa9621J4dvkAgzRjVaOnMOsfsuU6tFlulIYsgGkJWO3Yo+OOBoCx3jyG/sbhk0DCMIUNfwYQy9I8TR7tOHA1SSiijDqfmjaWumrHYMw3ZAhPKkKUabsd3b+v0+2QuhOBkwmTb7HlOHa4lBYDcN2OOY+QY855vO7ytcjCQ3vSvtuE15gXLSpxF6C/DwEPVELJOJKzs3dl5tT6a6SA7ijQL3iwtr9BjZQAgnwhBLp4JHzscTKd5pr886xXn7LlODc7thwGFaAhZhHNy4mjw6IGAnOKcE0bp1Jn22tkOXHACAPkqs526uTGZ6S87i7VvLC0ZORr9ZRgwiIaQLe7eTny/zef3yZwLIUhltWHegpJi3IYMAAXgxrXY4X2BWETJzC8PqzEtXOZCfxkGBKIhDLxHOshmq6ZuflHNGHzTDP0NYygwgJS0OHms69zJkMoFY1SrpTPRX4aBgDEUGEick5M/dh35wZ/pIEuMTpppm/GyU6PFWyEAFBaNls6e6xw3wbr/e1/T3aTMxZH9gfpzkUVvu4aNNGF9oN+gaggDpuF2fPf2zs4OWXAhBBlWY6p7tdjuxLcrMGBwriFkibu3Ez8eDHR2yJn+8vAa0wL0l6G/IBrCAOjskPd913n7ejzTQfZUGV55raisHDPIAADdOBdX62PHjwRjUYUxKklk6kzHnFedOPAf+hqiIfSraEQ9tNd/4UxYCMK5cBZpXnmtZDBOsQYAeJx0ml88Gzl1rEuWOWPUaGSz5zln1jmxMtB3EA2hnyQT/MTR4ImjXem04FyYTNLMV5zjJ1qxMpA90FCG7JRMqKeOh86dDGUOuLE7NHWvFU2casPKQF9ANIQ+l0zwk8e6Tv3YlUxywYVGx6bNcEyebsOsCWQbTChDNgt3KUcPBm5ejVFGKKVFJdo584rGTbIwhvdS6E3Y8g99KJngJ34MnjoWSiV5ZtZkwlTbzDlOgxH33QEAPBubQ7PkndKOWfKR/f7mxqTfJ+/Y5D16IDDn1aKXpqADA70GVUPoE8kEP3Ws6+T9SqEQZMRo88tzizCADADw4n4xwkypExVE6D2IhtDLfh0KMYAMANDrHowwZ+5QobTIpX15XtG4iQiI8EIQDaHXJOL85LFftI9dbt2sOueQ4TisFQCgT6TT/Ofz0ZPHgskE7wmIM+uck6ZhSAWeE6Ih9IJAZ/rE0a5L58LptMiEQrdHP2OOE6fSQG7BGArkqHSa15+Lnj0ZikW7K4gWm2bqTPuUWhvOQYRnhY1f8EIa7yR+OhK8dT0uBOlpH9fOcgxCKAQA6C9aLZtcaxs/2XL5Yuz08WAsqoZD6UN7/D8eCEyYYptR58BNKvD0UDWE55HZ43LiaLCtJZUJhZTSYTWmqTPs2FMIuQvnGkIe4JzcuBI9eyrka+8eUqGM1Iyx1L5srxqMb9rh9yEawrORU/zcqfCpY13hkCKE4JxodWz8BOukaTarHUVoAIBs0dSYPHcy1HArnjkHkVJSWW2YMcdZM9ZMMaYCT4ZoCE+ro10+cyL084WInOKCEy6ExaqZPM0+bpJFp8M5hQAA2agroJw71XWlPqYqnDJKKbHZNZOm2SZNt1us2IYIj4FoCL8jLYv6C+Hzp8LdvWMhhCBlbv3kWvuIUSYckQD5BA1lyFfJhHrpXPTi2XAsplBKGKOM0eE1pim19qEjTSgiwsMQDeGJOtrlMz911V+IpGXRM2UyvMY8aZqtohqfmpCHMKEMee/yxejZE10Bf7qny2xzaCZNtU2utZstKCICIZhQhl9Ly+Lni5Hzp8KtzcmeMqFGS8dNsk+abrM78JoBAMhVYydYxk6wNDYkzp0MNd5JEEq6AunD+wNHDwRHjDJNmm4bNhI7EQsdqobwQEe7fPZk6NK5cFoWggsuCBHEYtNMmmYfP9Gi02NDIQBA/gj6lQunQ5d/jiiyeFBEtGsmT7dPmm5DEbFgIRoCScvi8sXIuV+WCSVGh400jZtkqxpkwHeQAAD5SkmL61di9efD7a0pQgmlhFIqSXTEaNPk6fahI7ATseAgGhauWFS9fiV261qs4VZClnkmERJBSsp0o8dZx7xkNhrxLSMAQKHw+9L1F8LXL8cScbUnI5rMbPQ467CRpmEjTRotQmJBQDQsOMFA+vLFyPXLsYcnjokgdodm1DjLqLEWZzEOzYcChTEUAELIvbvJG1eiN67F5CSnmYzIKCFkeI155Bjz6HFmXL6X3zBSUChiUbX+fORqfbSlKUkE4fcTocWmqRljrhljKXXrsEoAAFA92FA92PDa4pI7N+PXLkdv34iriqCU3LwWu3U99t1WMmK0eexLllFjLagj5iVUDfNcKKhcuxy9cTXWeCdBSPcBNEIQo1EaOdZcM9riqcK9dgDdcK4hwK+l0/zOjfi1y7GGW3FCSM/AikZLR9SYR4wy14w16w2YU8wfiIb5qelu8sbV2K3rMZ9XzvwNZ0JhsUs7ZLh56HATEiEAADyTtMwbG5I3rkYb7yRSqUyvmWaGVKqHGIfXmIbXmErd+HDJeYiG+UNO8VvX47dvxK9fjiaT/OF9hJ4qw4ga8/AaE645BgCAF9falGy4nbj6czQaVno2I1JKHE7tqHHmYTWmIcNMWKUchWiY8+41JBrvJBobEndvJ4QgJJMGBSGCuNy6mjGWmrFmqxWJEOD3oaEM8Kxam5I3rsUemWumlOj0bOgI46ChxsFDTa4y7GXPJYiGOaknDjY3JhVFPFwgNBolT7W+qto4aKgRs8YAzwQTygDPrflesqkx2XQ33tqUIoQ8HBONJjZoKGJizkAxKTfIMm9rTt1reDQOEkGEIHoDqxxkrBpsrKw2lrgQBwEAoL9VVhsqqw0z5zgIIU2NyZZ7yebGRPO9JKEkFlWv1seu1scejolVg4xuDzYmZiNUDbOULPP2llRbS6qtJdXemursuD9Ncr86aDBK1YMNFdVGT5XeVYpvwgAAIBs130s230u23Es23U0QSijpLigSQiklnip9ucdQXqF3V+iRFLMEomG2+HUWJN1bBh/sHTQYWfUQU+Ugg6fSgOogAADkluZ7ydamVNO9eFNDkpAHTWdCMmHxflKs1Ls9SIoDBtFwwDwxC5L7nWJCiCBGk1Q12FA12FTu0ZWgOggAAHmhtSnV3JRobky2NCVVRTxcUKT3r21GTXFAIBr2n2hE9fvk9tbfyYKSlrrL9aVufZlb5yrTF6M6CNBfMIYCMCBam5Id3rS3Lenzpjo70oSQh5JiT1B8kBRL3XpXmU6rw10sfQJjKH1CSQtfhxzoTAc65U6fHAykfV45LQvyuCyo1bPSMr3bo3eVIgsCAEDB8VQZPFUGQqyEkHSad3akvW2yz5vytiUfTorNjcmWeylyv/tssWqKXdqiYm2xS1dUoi0u0eEDtFegatgL/J2ZFJj2d6b9Ptnvk6MRNfNLPZsF7z8mRqPkKNI4irTOYl1xibaoWOcsRkAHyAo41xAgC3lb5UCn3BVM+/1y0J8OdamKwgl5MMty/zEhhBSVaIuKda4ynbM4kxq1Vhs+ZJ8NouFTiUbUSFiJhpVIWIlG1GhEjUQePM38MyJTExQ9jwkRhBBisWlKy3Rl5fpSt66sXG8yS1hPAACA5xb0Kx3tyQ6v7G1LedvldIoT8lAPmlBCBXmwZZE4nFqLTbJYJYtVY7VprFaNxSZZbRqzVTKZ8KH8KETDbpnwF4uq4a50d/gLK9HIL8If6cl8hJD7DeGevjAhRNLQYpfW7tAWFWudRVpHkbaoWKvT49JxAACAvhIJK8FAuiughLrSnR1yVzAdCirdv3Y/L3b/QO8/e2ibYiY4Wq0as1XKBEerXWOxSgUbHAsoGmZCXqb4dz/5dee/pwp/hNz/H6LTM4tFMlsls0VjsUo2h9ZRpHE6UbUGyG1oKAPkjaBfCQbkroASDqejESUe49GoEouoqnL/s/xBXux58ITgaO0uMRZIxTHHokwqxeUUl1MilVLTsuh+KotU8glPZS6nhJzissx7/pCe8PcgFv8q/OkNzJwJf2aN1aYxmyWTVbKYNWarZHcg/wHkp7v+hh2XthJC6obPRTQEyGnOYs1jt/InE2osymMxJR5VYzEejSixiBKLqdGwEotxJX0/LdzPiwG/HPA/MTjq9UxvYDod0+mZTk91OqY3MK2W6g2STkd1eqbXM63uwVOdjun0VK+Xsnm8egBSTirFU8lMaOOZAPfo08yDpJpOi1Ty/tOUmpnwfVRPqnvwM78qhIqeHx6EP4NRslglk1kyWySrTWMya8wWZjZLZqsG4Q8AACAvGYySwSg9aZZZTvFoRI3F1FhEiUbVeEyNhJV4TI1GlFhMVeRHK46JuJpIPGg80u4G9qPo435Sr+8OlHq9lImVOj3TPZwjH3mqYzp994M+XSJ693acECIEkVO8p+qWfqjG9muCEDnJMzW5VIor6V8ksYf/qF//6pP+xGeLdw/9zMM0WqbTUa2W6gxMp2NaLcusplbH9HpmNEkmC7NYNGazZEP4AwAAgGchyzwW4bGYkgmOcpKnetqYsqqmhSyLTD0r+VBefID+6uEvIyN9XISkT1FefFC51NFfTzj8ImL+dqykRKdj9H/+j//94Keefdvhi25UfLHfTxmRJMoYYRKV2OOjOgAAAEA/E5xwLlRVCE4U5YXnOmj//W6NrLTn8MJzQhS8/AAAAAB6h6bYWYlVAAAghLSyu7c0FwkhtfICPcEYCgAUIpxrCADQbf+VA387so4Q8ueP/ug0ObAgAFCAMI0BANBtqGvIyqnLCSEGLUqGAFCgUDUEAAAAgG64ww0AAAAAuqGhDADQ7Y6v4VzjeULIkgmLjegpA0BBQjQEAOh2x9fwzZkthJD5Y15FNASAwoSGMgAAAAB0wxgKAAAAAHT7//5d/uDiP3o+AAAAAElFTkSuQmCC;" parent="1" vertex="1">
          <mxGeometry x="516.08" y="416" width="67.85" height="17" as="geometry" />
        </mxCell>
        <mxCell id="Lm9_U-SLF60hvCdr4yT4-22" value="&lt;div&gt;$$P(\mathbf{Z})$$&lt;br&gt;&lt;/div&gt;" style="text;html=1;align=center;verticalAlign=middle;whiteSpace=wrap;rounded=0;" parent="1" vertex="1">
          <mxGeometry x="269.81" y="600" width="60" height="30" as="geometry" />
        </mxCell>
        <mxCell id="Lm9_U-SLF60hvCdr4yT4-23" value="" style="edgeStyle=orthogonalEdgeStyle;rounded=0;orthogonalLoop=1;jettySize=auto;html=1;" parent="1" source="Lm9_U-SLF60hvCdr4yT4-24" target="Lm9_U-SLF60hvCdr4yT4-27" edge="1">
          <mxGeometry relative="1" as="geometry" />
        </mxCell>
        <mxCell id="Lm9_U-SLF60hvCdr4yT4-24" value="" style="rounded=0;whiteSpace=wrap;html=1;direction=east;fillColor=#dae8fc;strokeColor=#6c8ebf;" parent="1" vertex="1">
          <mxGeometry x="480" y="580" width="40" height="120" as="geometry" />
        </mxCell>
        <mxCell id="Lm9_U-SLF60hvCdr4yT4-25" style="edgeStyle=orthogonalEdgeStyle;rounded=0;orthogonalLoop=1;jettySize=auto;html=1;entryX=0;entryY=0.5;entryDx=0;entryDy=0;" parent="1" source="Lm9_U-SLF60hvCdr4yT4-26" target="Lm9_U-SLF60hvCdr4yT4-24" edge="1">
          <mxGeometry relative="1" as="geometry" />
        </mxCell>
        <mxCell id="Lm9_U-SLF60hvCdr4yT4-26" value="" style="rounded=0;whiteSpace=wrap;html=1;direction=east;fillColor=#dae8fc;strokeColor=#6c8ebf;" parent="1" vertex="1">
          <mxGeometry x="410" y="595" width="40" height="90" as="geometry" />
        </mxCell>
        <mxCell id="Lm9_U-SLF60hvCdr4yT4-27" value="$$\mathbf{V}$$" style="whiteSpace=wrap;html=1;aspect=fixed;fillColor=#e1d5e7;strokeColor=#9673a6;" parent="1" vertex="1">
          <mxGeometry x="540" y="622.5" width="35" height="35" as="geometry" />
        </mxCell>
        <mxCell id="Lm9_U-SLF60hvCdr4yT4-29" style="edgeStyle=orthogonalEdgeStyle;rounded=0;orthogonalLoop=1;jettySize=auto;html=1;" parent="1" source="Lm9_U-SLF60hvCdr4yT4-30" target="Lm9_U-SLF60hvCdr4yT4-32" edge="1">
          <mxGeometry relative="1" as="geometry" />
        </mxCell>
        <mxCell id="Lm9_U-SLF60hvCdr4yT4-30" value="" style="rounded=0;whiteSpace=wrap;html=1;fillColor=#d5e8d4;strokeColor=#82b366;" parent="1" vertex="1">
          <mxGeometry x="220" y="710" width="40" height="120" as="geometry" />
        </mxCell>
        <mxCell id="Lm9_U-SLF60hvCdr4yT4-31" style="edgeStyle=orthogonalEdgeStyle;rounded=0;orthogonalLoop=1;jettySize=auto;html=1;" parent="1" source="Lm9_U-SLF60hvCdr4yT4-32" target="Lm9_U-SLF60hvCdr4yT4-34" edge="1">
          <mxGeometry relative="1" as="geometry" />
        </mxCell>
        <mxCell id="Lm9_U-SLF60hvCdr4yT4-32" value="" style="rounded=0;whiteSpace=wrap;html=1;fillColor=#d5e8d4;strokeColor=#82b366;" parent="1" vertex="1">
          <mxGeometry x="290" y="725" width="40" height="90" as="geometry" />
        </mxCell>
        <mxCell id="Lm9_U-SLF60hvCdr4yT4-33" style="edgeStyle=orthogonalEdgeStyle;rounded=0;orthogonalLoop=1;jettySize=auto;html=1;entryX=0;entryY=0.5;entryDx=0;entryDy=0;" parent="1" source="Lm9_U-SLF60hvCdr4yT4-34" target="Lm9_U-SLF60hvCdr4yT4-38" edge="1">
          <mxGeometry relative="1" as="geometry" />
        </mxCell>
        <mxCell id="Lm9_U-SLF60hvCdr4yT4-34" value="$$\mathbf{Z}$$" style="rounded=0;whiteSpace=wrap;html=1;fillColor=#fff2cc;strokeColor=#d6b656;" parent="1" vertex="1">
          <mxGeometry x="360" y="741.25" width="20" height="57.5" as="geometry" />
        </mxCell>
        <mxCell id="Lm9_U-SLF60hvCdr4yT4-35" value="" style="edgeStyle=orthogonalEdgeStyle;rounded=0;orthogonalLoop=1;jettySize=auto;html=1;" parent="1" source="Lm9_U-SLF60hvCdr4yT4-36" target="Lm9_U-SLF60hvCdr4yT4-41" edge="1">
          <mxGeometry relative="1" as="geometry" />
        </mxCell>
        <mxCell id="Lm9_U-SLF60hvCdr4yT4-36" value="" style="rounded=0;whiteSpace=wrap;html=1;direction=east;fillColor=#dae8fc;strokeColor=#6c8ebf;" parent="1" vertex="1">
          <mxGeometry x="480" y="710" width="40" height="120" as="geometry" />
        </mxCell>
        <mxCell id="Lm9_U-SLF60hvCdr4yT4-37" style="edgeStyle=orthogonalEdgeStyle;rounded=0;orthogonalLoop=1;jettySize=auto;html=1;entryX=0;entryY=0.5;entryDx=0;entryDy=0;" parent="1" source="Lm9_U-SLF60hvCdr4yT4-38" target="Lm9_U-SLF60hvCdr4yT4-36" edge="1">
          <mxGeometry relative="1" as="geometry" />
        </mxCell>
        <mxCell id="Lm9_U-SLF60hvCdr4yT4-38" value="" style="rounded=0;whiteSpace=wrap;html=1;direction=east;fillColor=#dae8fc;strokeColor=#6c8ebf;" parent="1" vertex="1">
          <mxGeometry x="410" y="725" width="40" height="90" as="geometry" />
        </mxCell>
        <mxCell id="Lm9_U-SLF60hvCdr4yT4-39" style="edgeStyle=orthogonalEdgeStyle;rounded=0;orthogonalLoop=1;jettySize=auto;html=1;entryX=0;entryY=0.5;entryDx=0;entryDy=0;" parent="1" source="Lm9_U-SLF60hvCdr4yT4-40" target="Lm9_U-SLF60hvCdr4yT4-30" edge="1">
          <mxGeometry relative="1" as="geometry" />
        </mxCell>
        <mxCell id="Lm9_U-SLF60hvCdr4yT4-40" value="$$\tilde{\mathbf{V}}$$" style="whiteSpace=wrap;html=1;aspect=fixed;fillColor=#e1d5e7;strokeColor=#9673a6;" parent="1" vertex="1">
          <mxGeometry x="160" y="752.5" width="35" height="35" as="geometry" />
        </mxCell>
        <mxCell id="Lm9_U-SLF60hvCdr4yT4-41" value="$$\mathbf{V}$$" style="whiteSpace=wrap;html=1;aspect=fixed;fillColor=#e1d5e7;strokeColor=#9673a6;" parent="1" vertex="1">
          <mxGeometry x="540" y="752.5" width="35" height="35" as="geometry" />
        </mxCell>
        <mxCell id="JKJRR5ncDJB6F3wZXvhk-1" value="" style="shape=image;verticalLabelPosition=bottom;labelBackgroundColor=default;verticalAlign=top;aspect=fixed;imageAspect=0;image=data:image/png,iVBORw0KGgoAAAANSUhEUgAAAqUAAAKPCAIAAADbjSQ1AAAAIGNIUk0AAHomAACAhAAA+gAAAIDoAAB1MAAA6mAAADqYAAAXcJy6UTwAAAAGYktHRAD/AP8A/6C9p5MAAAAQY2FOdgAADwAAAAQ4AAACHgAAAVUJok04AAA6k0lEQVR42u3deVxU1f/H8TPDwLCjiOC+JC6IkYpZlv0UFdxNUrSUIjWsNEnT3EIBF3ArSzJz/YaZfpNQc8kQVDSzMi0rUzT39GsqLmkMjAPc3x/Xx8RP+yryY4aZM6/nXzP3zr3c+5lzfXvuckajKIoAAABS01ICAACkR94DACA/8h4AAPmR9wAAyI+8BwBAfuQ9AADyI+8BAJAfeQ8AgPzIewAA5EfeAwAgP/IeAAD5kfcAAMiPvAcAQH7kPQAA8iPvAQCQH3kPAID87CDvN2zY0Llz59q1a3t7e7ds2XLs2LF5eXnmuTNnztRoNMXFxWVZ1QN9GAAAadh63o8bNy4yMvLGjRvDhw+fMmVKy5YtFy5cGBwcfOHCBb48AADKSGfLG/fzzz+/8847gwcPXrVqlXliXFzcE088MWHChJUrV/L9AQBQFjbdv9+7d6+iKK+88krpia1bt+7YseM333wjhAgLC4uPjxdC6HS6MWPGqB9Yvnx569atvb29q1at2q5du/Xr16vT//HDW7ZsCQsLq1q1aq1atYYOHXru3DnaBABAPjad90VFRUKII0eO3DH9s88++/bbb4UQqampsbGxQoicnJy4uDghxMcff/zSSy/5+vpOnz59+PDh169fj4qK+uGHH/7xwwsXLuzVq5dWq42Pjx88eHBGRsZjjz32xx9/0CwAALJRbNjJkyf1er1Opxs6dOgXX3yRn59/92dmzJghhCgqKlLfduvWrXr16uZPquH99ttv3/3hy5cv+/j4vPDCC+ZVHTp0yNXVdcSIEbZcEwAAysGm+/cNGzbMzMx8+OGHV6xY0aNHD19f386dO8+dO/ceXfA1a9acOHHC3d1dfXvt2jUhREFBwd2f3LVr159//vnGG2+YpwQHB4eFhW3bto3/BQIAJGPT9+sJITp06PDDDz8cP348Ozt7+/btP/7448KFC6dMmbJs2bLo6Oi7P1+lSpVDhw5t2bIlNzf3+PHj6pn8f3Ts2DEhRMuWLe+Y7u3tTbMAAEjGpvN+xowZPj4+o0aNCgwMDAwMNN+4N2XKlJdeeqlDhw5169a9Y5F33nln/PjxDRs2fOqpp/r06TNr1qz27dv/48r1er0QYtOmTVWrVi09XaPR0CwAAJKx6bz//vvvDxw4MGLECCcnp9LTW7dubTQac3Nz78j7mzdvTpw4MTY29oMPPlBj+x/P5KsaNWokhPD19X3iiSfME3/44Yc7/hYAABKw6ev34eHh58+ff+utt0pKSswTi4uLly1bptPpgoKCzBPVD5w4ccJkMjVt2tTcR1+9erUQQlGU0qtVP9yhQ4cqVarMnTvXPPfEiRPt2rXLyMigWQAAZGPLNxMWFxd37dpVCBEUFPTKK68kJiaOGDGiQYMGQoj33ntP/cx7770nhEhJSdm/f39BQUGNGjVq1aqVkpKycuXKl156qVatWj4+Pi1atMjKyrrjw4qiLFiwQAgRFhY2f/78UaNG1ahRo379+hcvXuQ2TljUhQsXRo4c2bhxYzc3txo1ajz11FOLFy82Go22ubU6nS4+Pp5vDeXWokWLO3LH3d394Ycfnjt3bmFhoc1u9vvvvy+EePfdd+8+EO6YZS9s+ny+VqvdsmXLqlWrli9fvnHjxmvXrtWtWzc0NHTNmjWPP/64+plnn332s88+mzZtmsFgCA0N3bJly9ixY5OTk6tXr96xY8cff/zxm2++SU5O3r9/f5cuXe748KhRo2rXrj1//vyEhARvb++uXbtOmzbN39+f/wXCcjZu3Dhs2LCbN2+2b9++T58+RqNxz549L7/88gcffJCTk1OlShVKBPn4+fmNHj1afa0oypUrV7Zu3frmm2+eOHFi0aJFtrnNXl5eDRo0+Mc7uO8xy6bxf0/Aan766ScnJ6eQkJBDhw6Vnr5ixQonJ6devXpZc2N+/vnnM2fO3Pdj5ejfX79+fc+ePXzdULVo0aJZs2Z3TLx161ZQUJBGo/nrr7/sYi8kONHF7+EC1jNq1Ci9Xr9p06bg4ODS04cMGfLiiy9u2bLl1KlT5on3GOxZo9EsX758zZo1YWFh3t7eQUFBaWlppVd472X/9a9/DRkyJCQkZOnSpUKI06dPP//883Xq1HF1da1Xr96rr7565coVIcSuXbs0Gk1RUdGMGTM0Gs2ff/4phDh37txzzz3XoEGDatWqhYWFZWVlmdeclJTUsGHD/fv3N2rUqH379vwQJe7B2dm5c+fOiqKcOHFCnVJSUjJv3rxHH33U09OzcePGCQkJRqPR/HmDwTB69OigoCAvL69HH3103bp15lmFhYXjx49v0aKFl5dX27Zt1au95rl//vlnbGxsgwYN6tatO2TIkMOHD2s0mi1btphbeG5u7rRp01q1auXl5dW+fXt18Fbz3F27dt19IJhn3XcD7v0nrI3/ewLWof679sYbb/zj3JKSkqKiopKSEvWteoGwU6dO8+bNGzdunLe3d61atS5cuKDOFUJ07do1IiLip59+OnXqVP/+/TUazddff13GZR977DFfX9+4uLg9e/YYjcZmzZr5+PhMnDjxnXfeGThwoJOTU9++fRVF+fPPP/fs2ePk5PTCCy/s2bOnqKjo999/r1atWtWqVSdMmJCSktKqVSuNRvPxxx+ra05MTAwICGjQoEGXLl2mTZtm3hc4uH/s3yuKMnDgQK1We+nSJfVtVFSUVquNiYmZP3/+888/r9Vqu3TporYik8nUqlUrV1fX119//e2331av527evFlRlOLi4scff1yr1Q4bNuztt9/u06ePECI2NlZdZ0FBQVBQkLu7+xtvvJGSkvLwww+rV2zVZXNycoQQ3bp1Gzdu3MmTJ/fv3x8cHFytWrWbN2+a5+bk5Nx9IJhn3XcD7v0nrIy8B6xk48aNQojVq1ff95P3HexZCOHn52c+EXrp0iUhxIwZM8q4rLu7+9mzZ9W3aldj3rx55s+/+uqrXl5e5relT2MOGzZMp9P9+uuv6tuCgoLWrVvXqVNHvesqMTFRPYfBd43S7s77a9euffTRRzqdztws1YFNly9fbv7M8uXLhRBr165VFEW9xv/FF1+os27cuFGlSpVOnTopivLxxx8LIZYsWWJecMSIEVqt9pdfflEU5d133xVC7NixQ5118+bNwMDAO/K+R48e5mXXrl0rhFCvRpUO9TsOhNKz7r0B9/4TVsb5fMBKTp8+LYSoU6dO6Ylubm6aUqZMmSLKNthzz549PTw81NfVq1d3cnIqLCws47JPP/20eeyKVq1a5eXlme+lEkJcvXr1vw1csWXLlj59+jRv3lx96+rqGhcXd+7cuZ9//tn8mddee43vGnfIzc0t3c6rVq364osvDh8+XH1ISgixceNGX1/fIUOGmBd58cUXPT091Xa7bt265s2bd+/eXZ3l5eW1atWqfv36qW3S399/6NCh5gXHjx9fUlKydetWIcRnn30WGhoaFhamzvL09Bw+fPgd2xYVFWV+XbNmTSGEeiiV0b03oEL+REWx9fF0AWnUr19fCHHmzJmnnnrKPDEhIUG9zm3uH4uyDfZ8x2BT5jEnyrJsvXr1zK9dXFzc3d3T09O///77EydOHDp06MSJEzrdP/zLYDAY/vjjD3PYq9S3J0+efPTRR+9eOaAqfX++EOLGjRubN29esmRJRETE008/rbbbq1evarV3dkHVc1fHjx9v3bp16ek9e/ZUX5w4caJJkyalx0mrX7++h4fHyZMn1QW7dOlSesHSA7fcfSiVY3zVe29AhfyJikLeA1ai3qO3f//+0j/9MHHiRPXF+fPn1c69KNtgz/8YyWVc1s3Nzfz67NmzvXv3Pnr0aFhY2COPPNKvX7/vv//+Hx+RUq8F3PGvlfrPnMlkMk9xdXXlu8Yd/Pz83nrrrdJTEhISHnroobffflvNe71e36BBg1WrVt2xoPqE6q1bt/5bg1cU5e4E1Wq1aps0mUz/2GJL+29rLqN7b0CF/ImKQt4DVvLQQw+1bNlyyZIlY8eOvfunH0rfb/z/Gez5QZddtGjR8ePHf/31V3VBIcShQ4f+8ZMeHh7+/v65ubmlJx4+fFgI0bhxY75fPBB3d/fQ0FBzY2vUqNH27dsfe+wxczSWlJR89dVXnp6eQojAwED1xJXZ9u3bd+3apf6nYdeuXSUlJeZzA+fOnbt586baJgMDA48ePVp6wTvWUyHH9T02wKZw/R6wEo1G88EHHxQWFvbp0+eO1Ny6deuECRPMb/8/gz0/6LJHjhxxd3c3n4TPz8/fuHGj8k9DUAshevTosWHDBvO/mEaj8b333qtVq1ZISAjfLx6UXq9XH/IUQvTt29dgMKiPlqhWr17dsWNH9amW7t27//jjj+q9b2qDnDx58vr1652cnHr06HHx4sXSz6POnj1bo9GoY7P27Nlz3759e/bsUWcVFhaqz6CWT+mR3c3uvQE2xaH799WrVy8qKrp27ZoQYubMmfHx8UVFRWo3qPQsoKK0a9du6dKlr7/+eqtWrf7nf/4nJCSkqKho//79X3/9dUpKyr/+9S/1Y1WqVJk2bVpcXFznzp379Olz8uTJ9PT0mjVrluVWuAddNiws7PPPP4+Oju7Ro8fVq1eXLFlSXFxcXFw8fvz4KVOmeHl5eXl5bdu2LTg4uH///klJSZ9//vmTTz75yiuv+Pj4/Pvf//7hhx9WrlxZ+gIBUEZubm43bty4ceOGt7d3hw4d+vXr98Ybbxw8eLB169b79u3LyMjo0aNHx44dhRBxcXHLly/v1avXiBEj6tevv3nz5n379qWnpwshnn/++YULF8bGxu7bt6958+Y5OTnr1q2LjY1Vb2EZM2bMihUrunfvPnLkSH9//zVr1gQEBPz666/l+F200gdC6en33gDb4shPibRq1SokJER9PWPGDCFEUVHR3bOAinXs2LHhw4eHhoZ6enq2bNly2LBh3333nfrs0CeffGL+WEZGRvv27b29vevUqRMTE1N6LDwhRGJiYul11q5du/QTQWVftri4OD4+vl69eupIIJ988onBYBg8eHCbNm3U35JQe/BVq1b9888/FUU5c+bMgAED6tWrV7Vq1Q4dOmzbts28KvV+Q75f3OG/PX8/a9YsIcRrr72mvlUHtGnZsqW7u3vjxo2nTp2an59v/vD169eHDx8eGBiojmmzbt068yyDwTB27NjmzZt7enqGhoa+++67pcd+uHTp0nPPPRcQENCkSZMpU6aoV6B2796t3PXEnaIoX3/9daNGjQ4cOHD33NIHwh2z7rEB9/4TVqZR/u+Juwp37ty5q1ev2v7pvjv69wAAe2cwGIqLi728vMxTMjMzu3XrdubMGQd8kMRS1+/DwsKGDBmydOnShg0bjhw5Up149OjRyMjIOnXqVK1atVu3bt98803pRXbs2NGpU6eqVavWq1dv+PDhly9fNs/6+uuvw8PD/fz86tWr169fv9LPOQghNmzY0L59ex8fnyeeeGLt2rWvvvqq+dGgsLCw559//sCBA5GRkX5+fnXr1h0/fnxRUZF5rvpcZlhYWHx8vBBCp9ONGTOm9Kz7bsC9/wQAoLJMnz69evXqpa/Mrlixonnz5g761KiFzht07NixdevWrq6uzz///KpVqxRF2bdvn7u7e5MmTaZPnz59+vTAwEAXF5fs7Gz182vXrnVycmrXrt2cOXPGjBnj5ubWrl079ez6xo0bnZycmjdvPmPGjMmTJwcEBHh5eR05ckRd8KOPPtJoNO3bt58zZ87w4cOdnJz8/f3btGlj3ox27do98sgj2dnZ58+fT0lJEUIkJyeb53bs2FFRlF9++SU2NlYIkZOTc/LkydKz7rsB9/4TAIDKcujQIfVBgPfff3/dunXPP/+8EGLZsmWOWQ0L5r0QIiMjwzzliSeeaNasmfl6TH5+frNmzZo3b64oitForF+//pNPPnnr1i117rRp04QQu3fvLioqatq0aZMmTcyjDZ8+fdrNzS0qKkpRFIPBULNmzU6dOpmvu3/44YdCiNJ5L4RQL46qmjdv3qVLF/Ncc6jfcf3ePOveG3DfPwEAqER79uzp3Lmzr6+vj49PaGho6VtkHI0F78+vVavWM888o76+cuXK3r173333XXd3d3WKu7v7kCFDJkyYcP78+TNnzpw5c2bu3LnOzs7q3Ndee83d3d3Ly+v48eNHjx5dsGCB+hSmEKJ+/foDBw5UhyDeu3fvhQsXlixZYr7oPnToUPMAJubPt23b1vy2Zs2aDzSQ4b03oEL+BADAQp588sns7GzqICz6/H3pEUXUB3ZHjx5deghl9YHjS5cuHT9+XPzfYQ6rVq06duzYli1bqg9f3j2Ep8FguHjx4t0LOjs7m4cNuXszxIOPZXjvDaiQPwEAgKVZsH9f+pFcdYzPadOmderU6Y6PBQYGHjhwQPyXEQeVew7hqQ5YePfc0qMi/P/HShT3G0PURsZKBADgv7HS+Hpqn9vJyenJUmrWrKk+KaH+QGHpYQ6Li4unTp26ffv2hx56SAhx9xCebm5utWvXVhcsPVxicXGx2iOvKPfeABoQAMAuWCnvfXx8OnTosGjRops3b6pTjEZjnz591Kfg2rRpU7169ffee0/9oTAhxNatW6dPn379+vXGjRsHBga+//77BoNBnXX27Nl///vf3bp102g07dq18/X1VQc3UOeuXr36ypUr5d7Ou4dLvPcG0IAAAHbBeiei58yZoz6kN3ToUKPRmJGR8dtvv6m3UXh6eiYnJ8fGxnbq1CkyMvLatWupqamtWrXq3bu3TqebO3duv3792rVrN3jwYIPBsGTJEq1Wm5ycLITw8fFJSkoaNWpUly5d+vTpc/r06U8++aRNmzblGytRCPH222+Hh4eHhob+XaB7bgAAAHbBer+X07Zt23379jVt2nTBggWpqak1a9bcuXOn+YfAX3rppY0bN5aUlCQkJHz00UdRUVGZmZkuLi5CiL59++7cudPPz2/OnDnLli17/PHHf/zxx2bNmqkLvvbaaytXrrxx40ZiYuKRI0eysrICAwM9PDz+22Z4enqaly3t2Weffeqpp6ZNm/b555/fMeveG1D2PwEAQGWx+Hi6FlVSUnLz5k13d3fzg3xCiHbt2gUFBa1YsYJvFwAAlX3/Hq7BYPDz81NvAlAdPnz4u+++6969O18tAABm9v0gmaen56BBg9555x2j0dixY8f//Oc/M2bMqF+/fmRkJF8tAABm9n0+XwhRUFCQnJy8Zs2a8+fP16xZs127dvPnz/f39+erBQDAzO7zHgAA3Jd9X78HAABlQd4DACA/8h4AAPmR9wAAyI+8BwBAfuQ9AADy44fbAaA8jmwdaLmVB3X/lAqjYpH3AFBOQe3HW2K1R/bMobaocJzPBwBAfuQ9AADyI+8BAJAfeQ8AgPzIewAA5EfeAwAgP/IeAAD5kfcAAMiPvAcAQH7kPQAA8iPvAQCQH3kPAID8yHsAAOTH7+MBD2D65pcpgnVM6bWYItiyzKhIimAdXdPXV8h6yHvgwfR7NI4iWFrG9wsogu3rODmeIlhaTvKMiloV5/MBAJAfeQ8AgPzIewAA5EfeAwAgP/IeAAD5kfcAAMiPvAcAQH7kPQBYxOz5aY1b/j0ozYlT5zTebX765RiVQaUg7wEAkB95DwCA/Mh7AADkR94DgDUoikIRUInIewCwhrwr1ykCKhF5DwCWcuFiXr6hQH29bfu3FASViLwHAEvJzy8YMWbWnm8Opi7+dNnKDUKI02cvUBZUCvIeACzFy9P9txO/9x4w5ovMr3d/ubR/385DXk3KPXaaysD6dJQAACwkwL/a3uwV5rfpK2cfO362Vk0/KgPrI+8BwHqaBNajCKgUnM8HAEB+5D0AWMSEMTG/HVxPHWAjyHsAAORH3gMAID/yHgAA+ZH3AADIj7wHYDeys7PZfaB8yHsAdiAlJUWv10dFRbH7QPkw3g4Am5aSkpKUlCSEcHZ2Tk1NZfeB8iHvAdgik8k0b948NeqMRqMQwsfHJzo6mt0Hyoe8B2CLYmJiMjIybt26ZZ5y6dIljUZjO1s4cnDw++0dd/ejmzfrSDO1K1y/B2CL0tLSEhISXFxc9Hq9OsXf31+xJSMHBzvy7kc3b0YrtS/kPQBb5OzsPHnyZKPROHXqVDX28vPzV61axe4D5UPeA7Bp5tgzmUyjRo1i94HyIe8B2AE19tauXcvuA+VD3gOwG+Hh4ew+UD7kPQAA8iPvAQCQH3kPAID8yHsAAORH3gMAID/yHgAA+ZH3AADIj7wHAEB+5D0AAPIj7wEAkB95DwCA/Mh7ALCGv/INW7P2Rg4at37TTqoB69NRAgCwkHUbd8x656PDR095e3lcunxVp9O1CGpEWVAp6N8DgEV8tmF7v+jxjzzc5NOPUuJeeVan042Mjdq/++PI3mEUB9ZH/x4ALCIheXFk77ClqfFCiJ5d27u56d+Mf2/86JgAf1+KA+ujfw8AFc9gKDyce3LgM3//Yv2AyHCTqejQ4eMUB5WCvAeAinfhYp4QokaAn3lKgL+vVqs98/sfFAeVgrwHgIpXI6CaEOLipSvmKZfzrpeUlKjTAesj7wGg4nm4uzVtXD99Q7Z5SvqGbJ3OKSS4McVBpeB+PQCwiKTJLz87ZPLIsbOf7tnh50O/TZmx6OWh/erU9qcyqBTkPQBYxMB+EU5OTrPnp61cvaVunYC3xg2bNHYIZUFlIe8BwFL69+3cv29n6gBbwPV7AADkR94DACA/zucDDybj+wX2tcE71xwIey6ULw4VLid5BkWwIxpFUagCIPNBruEwt4gjWwcGtR9vkTXvmRPU/VMqXLFMJlNMTExaWpqzs7NjVoDz+QAA+c2bNy8jI2Pu3LkOWwHyHgAgv6SkpFu3biUlJTlsBch7AIDkUlJS1BcajSY5Odkxi0DeAwAkl5SUZDQahRBGo9Fhu/jkPQBAZubOvcphu/jkPQBAZomJiTqdzt/fXwjh7++v0+kcs4tP3gMApJWdne3u7v7hhx9evHhRCHHx4sUPP/zQ3d09KyvL0UrBeDsAAGl16dLl2rVrpadER0dHR0c7YCno3wMAID/yHgAA+ZH3AADIj7wHAEB+5D0AAPLj/nwAKKcje+ZQBNgLfigTkP0g5/dwAY4FzucDAOAIyHsAAORH3gMAID/yHgAA+ZH3AADIj7wHAEB+5D0AAPIj7wEAkB95DwCA/Mh7AADkR94DACA/8h4AAPmR9wAAyI+8BwBAfuQ9AADyI+8BAJAfeQ8AgPzIewAA5EfeAwAgP/IeAAD5kfcAAMiPvAcAQH7kPQAA8iPvAQCQH3kPAID8yHsAAORH3gMAID/yHgAA+ZH3AADIj7wHAEB+5D0AAPIj7wEAkB95DwCA/Mh7AADkR94DACA/8h4AAPmR9wAAyI+8BwBAfjpKgHs7snWg5VYe1P1TKgwODQ4NWAF5j/sLaj/eEqs9smcOtQWHBocGrIPz+QAAyI+8BwBAfuQ9AADyI+8BAJAfeQ8AgPzIe0BCWVlZPj4+aWlp5ilpaWlVqlTZtm0bxQEcE8/jARIKDw83Go0jR44cN26cEKJ69eqFhYW3bt2KiIigOIBjon8PyCkxMdFkMuXl5Qkh8vLyTCZTYmIiZQEcFnkPyGnixIla7f85wCdNmkRZAIdF3gPSSkhIcHFxEULo9fqEhAQKAjgy8h6QVukuPp17wMGR94DM1C4+nXsA3J8PyGzs2LG5ubljx46lFICDK1Pej5qfQ6WsI3VMR4pgy6ZvftnutrlRf/3sbaPsbrOn9FpMe7NlmVGRdrfN0c2b2eNmd01fXyHrKWv/Pm7QU7RvS1uw+iuKYPv6PRpHESwt4/sFFMH2dZwcb2cbbIdFzkmeUVGr4vo9AADyI+8BAJAfeQ8AgPzIewAA5EfeAwAgP/IeAAD5kfcAAMiPvAcAi5g9P61xy79Hdzlx6pzGu81PvxyjMqgU5D0AAPIj7wEAkB95DwCA/Mh7ALAGRVEoAioReQ8A1pB35TpFQCUi7wHAUi5czMs3FKivt23/loKgEpH3AGAp+fkFI8bM2vPNwdTFny5buUEIcfrsBcqCSkHeA4CleHm6/3bi994DxnyR+fXuL5f279t5yKtJucdOUxlYn44SAICFBPhX25u9wvw2feXsY8fP1qrpR2VgfeQ9AFhPk8B6FAGVgvP5AADIj7wHAIuYMCbmt4PrqQNsBHkPAID8yHsAAORH3gMAID/yHgAA+ZH3uG327NkUwSwrK4si2KDs7Gx2Hygf8h63TZo0SaPRdOvWrRzLHjt+tlfUaL8GnQMaRUQOGnfy9Hl7r0b//v1dXV1nzZpFw7ARKSkper0+KiqK3QfKh7zHbcOGDRNCZGZmPmjqK4rSK2p029Dg3AMZZw9vbhXSNHLQOHuvxoIFC3Q6XWJiopubG6lfuVJSUlxdXZOSkpydnVNTU9l9oHzIe9y2dOlSrfZ2ezCnvsFguO+C5/9z+fjJ3998/QW/alX0epf48cPq1anxV77BrqsRExPj5uZmNBoLCwvNqW8ymWgnVmMymcxRZzQajUajh4dHdHQ0uw+UD3lvQ/ZlpmkqVUlJSentyczMDAkJue9m165VvXat6kNGJB04eERRFK1Wu2ntfE8P9/suuPCTXzU2LC8vT91ONfUTEhJiY2NppVYTExOTmJioRp065dKlSzbVQhZ+8qsj7/6qw7m0UvtC3tuQtl1jlEpl7t+rIiIiDh48eN/N1mg0X2Uu07s4h/cZWSOw69AR086e+6Ms+ztycLBiw/z8bv+oiV6v1+v1iYmJS5YsoZVaTVpaWkJCgouLi16vV6f4+/vbVAsZOTjYkXc/unkzWql9Ie9xW2xsrLl/HxERoShKZmamp6fnfRc0mYpqBvilLU7KO529ae38AH/fFm0H5F25btfVSEtLKygoUJM+ISGhsLBw0qRJLi4utBOrcXZ2njx5stFonDp1qhp7+fn5q1atYveB8iHvcdvy5ctFqaQv+4LrN+3sNWC0EEKr1bYNDU5JfK1lSNPtOfvsuhpxcXEmk8mc9DSPSmSOPZPJNGrUKHYfKB/yHrfNnDnzQZNe1aF96I8/HV24ZO3NvwxFRcVZO787cvRUq0fs+1xfenq60Wgk6W2HGntr165l94Hy0VECqMqdbQH+vl+uT52U+H789EUajSY46KE1K5Lt/Ue+IyIiaBI2KDw8nN0Hyoe8RwVo06p51ucfUAcAsFmczwcAQH7kPQAA8iPvAQCQH3kPAID8yHsAAORH3gMAID/yHgAA+ZH3AADIj7wHAEB+5D0AAPIj7wHAGv7KN2zN2hs5aNz6TTupBqyP8fMBwFLWbdwx652PDh895e3lcenyVZ1O1yKoEWVBpaB/DwAW8dmG7f2ixz/ycJNPP0qJe+VZnU43MjZq/+6PI3uHURxYH/17ALCIhOTFkb3DlqbGCyF6dm3v5qZ/M/698aNjAvx9KQ6sj/49AFQ8g6HwcO7Jgc/8/Yv1AyLDTaaiQ4ePUxxUCvIeACrehYt5QogaAX7mKQH+vlqt9szvf1AcVAryHgAqXo2AakKIi5eumKdczrteUlKiTgesj7wHgIrn4e7WtHH99A3Z5inpG7J1OqeQ4MYUB5WC+/UAwCKSJr/87JDJI8fOfrpnh58P/TZlxqKXh/arU9ufyqBSkPcAYBED+0U4OTnNnp+2cvWWunUC3ho3bNLYIZQFlYW8BwBL6d+3c/++nakDbAHX7wEAkB95DwCA/Mp6Pn/B6q8oFiCEyPh+AUUAhBA5yTMogh0pU96njulIpQAhxJReiykCIITomr6eItgXzucDACA/OfNeo9FoNBq+XQAAVPTvAQCQn5zP3yuKwlcLAIAZ/XtAZlzbAjhSVOQ9AADyYzxdQGZc2wI4UlT07wEAkB95DwCA/Hj+HgAA+dG/BwBAfjx/DwCA/OjfAzLj2hbAkaLieTzc35E9cygCwKEBu6bh1DcAANLjfD4AAPIj7wEAkB/P3wMAID/69wAAyI/79QAAkB/9e0BmXNsCOFJU5D0AAPLjfD4AAPKjfw8AgPzIewAA5Mfz9wAAyI/+PQAA8uN+PQAA5Ef/HpAZ17YAjhQVeQ8AgPw4nw8AgPzo3wMAID/yHgAA+fH8PQAA8qN/DwCA/LhfDwAA+dG/B2TGtS2AI0VF3gMAID/O5wMAID/69wAAyI+8BwBAfjx/DwCA/OjfAwAgP+7XAwBAfvTvAZlxbQvgSFGR9wAAyI/z+QAAyI/+PQAA8iPvAQCQH8/fAwAgP/r3AADIj/v1AACQH/17QGZc2wI4UlTkPQAA8uN8PgAA8qN/DwCA/Mh7AADkx/P3AADIj/49AADy4349AADkR/8ekBnXtgCOFBV5DwCA/DifDwCA/OjfAwAgP/IeAAD58fw9AADyo38PAID8uF8PAAD56SgB7u3I1oGWW3lQ90+psEWpF7b4bz2HBjhSyHvcX1D78ZZY7ZE9c6gtODQ4NGAd5D0gM3r2AEeKivv1AACQH3kPAID8eP4eAAD50b8HAEB+ct6vxz1KAACURv8ekBnXtgCOFBV5DwCA/Hj+HpAZ17YAjhQV/XsAAORH3gMAID+evwcAQH707wEAkF+Z7tcbNT/HvvbqtXd22uNmCyFSx3SkUdqy6ZtfpgjWMaXXYopgyzKjIimCdXRNX18h6ynr/flxg56i6Ja2YPVXFMH29Xs0jiJYWsb3CyiC7es4OZ4iWFpO8oyKWhXn8wEAkB95DwCA/Mh7AADkR94DACA/8h4AAPmR9wAAyI+8BwBAfuQ9AFjE7PlpjVv+PSjNiVPnNN5tfvrlGJVBpSDvAQCQH3kPAID8yHsAAORH3gOANSiKQhFQich7ALCGvCvXKQIqEXkPAJZy4WJevqFAfb1t+7cUBJWIvAcAS8nPLxgxZtaebw6mLv502coNQojTZy9QFlQK8h4ALMXL0/23E7/3HjDmi8yvd3+5tH/fzkNeTco9dprKwPp0lAAALCTAv9re7BXmt+krZx87frZWTT8qA+sj7wHAepoE1qMIqBSczwcAQH7kPQBYxIQxMb8dXE8dYCPIewAA5EfeAwAgP/IeAAD5kfcAAMiPvMdts2fPpghmWVlZFMEGZWdns/tA+ZD3uG3SpEkajaZbt27lWPbY8bO9okb7Negc0CgictC4k6fP23s1+vfv7+rqOmvWLBqGjUhJSdHr9VFRUew+UD7kPW4bNmyYECIzM/NBU19RlF5Ro9uGBuceyDh7eHOrkKaRg8bZezUWLFig0+kSExPd3NxI/cqVkpLi6uqalJTk7OycmprK7gPlQ97jtqVLl2q1t9uDOfUNBsN9Fzz/n8vHT/7+5usv+FWrote7xI8fVq9Ojb/yDXZdjZiYGDc3N6PRWFhYaE59k8lEO7Eak8lkjjqj0Wg0Gj08PKKjo9l9oHzIexuyLzNNU6lKSkpKb09mZmZISMh9N7t2req1a1UfMiLpwMEjiqJotdpNa+d7erjfd8GFn/yqsWF5eXnqdqqpn5CQEBsbSyu1mpiYmMTERDXq1CmXLl2yqRbi4Lu/6nAurdS+kPc2pG3XGKVSmfv3qoiIiIMHD953szUazVeZy/QuzuF9RtYI7Dp0xLSz5/4oy/6OHBys2DA/v9s/aqLX6/V6fWJi4pIlS2ilVpOWlpaQkODi4qLX69Up/v7+NtVCHHz3o5s3o5XaF/Iet8XGxpr79xEREYqiZGZmenp63ndBk6moZoBf2uKkvNPZm9bOD/D3bdF2QN6V63ZdjbS0tIKCAjXpExISCgsLJ02a5OLiQjuxGmdn58mTJxuNxqlTp6qxl5+fv2rVKnYfKB/yHrctX75clEr6si+4ftPOXgNGCyG0Wm3b0OCUxNdahjTdnrPPrqsRFxdnMpnMSU/zqETm2DOZTKNGjWL3gfIh73HbzJkzHzTpVR3ah/7409GFS9be/MtQVFSctfO7I0dPtXrEvs/1paenG41Gkt52qLG3du1adh8oHx0lgKrc2Rbg7/vl+tRJie/HT1+k0WiCgx5asyLZ3n/kOyIigiZhg8LDw9l9oHzIe1SANq2aZ33+AXUAAJvF+XwAAORH3gMAID/yHgAA+ZH3AADIj7wHAEB+5D0AAPIj7wEAkB95DwCA/Mh7AADkR94DACA/8h4ArOGvfMPWrL2Rg8at37STasD6GD8fACxl3cYds9756PDRU95eHpcuX9XpdC2CGlEWVAr69wBgEZ9t2N4vevwjDzf59KOUuFee1el0I2Oj9u/+OLJ3GMWB9dG/BwCLSEheHNk7bGlqvBCiZ9f2bm76N+PfGz86JsDfl+LA+ujfA0DFMxgKD+eeHPjM379YPyAy3GQqOnT4OMVBpSDvAaDiXbiYJ4SoEeBnnhLg76vVas/8/gfFQaUg7wGg4tUIqCaEuHjpinnK5bzrJSUl6nTA+sh7AKh4Hu5uTRvXT9+QbZ6SviFbp3MKCW5McVApuF8PACwiafLLzw6ZPHLs7Kd7dvj50G9TZix6eWi/OrX9qQwqBXkPABYxsF+Ek5PT7PlpK1dvqVsn4K1xwyaNHUJZUFnIewCwlP59O/fv25k6wBZw/R4AAPmR9wAAyK+s5/MXrP6KYgFCiIzvF9jXBu9ccyDsuVC+OFS4nOQZFMGOlCnvU8d0tK+9MplMMTExaWlpzs7OfMeoQFN6Lba7bZ7aW7Pjk/18d6hYXdPX29cGkwtyns+fN29eRkbG3LlzOSYBAIJckDXvk5KSbt26lZSURBMHAAhyQcq8T0lJUV9oNJrk5GRaOQA4OHJBSJn3SUlJRqNRCGE0GuniAwDIBSFf3pv/E6eiiw8ADo5cUMmW94mJiTqdzt/fXwjh7++v0+no4gOAIyMXVFLlfXZ2tru7+4cffnjx4kUhxMWLFz/88EN3d/esrCxaPAA4IHLBTKrx87t06XLt2rXSU6Kjo6Ojo2nxAOCYyAUzxtMFAEB+5D0AAPIj7wEAkB95DwCA/Mh7AADkJ9X9+bCQI3vmUASAQwN2TaMoipw7ppF21wCOBYBj4UFxPh8AAPmR9wAAyI+8BwBAfuQ9AADyI+8BAJAfeQ8AgPzIewAA5EfeAwAgP/IeAAD5kfcAAMiPvAcAQH7kPQAA8iPvAQCQH3kPAID8yHsAAORH3gMAID/yHgAA+ZH3AADIj7wHAEB+5D0AAPIj7wEAkB95DwCA/Mh7AADkR94DACA/8h4AAPmR9wAAyI+8BwBAfuQ9AADyI+8BAJAfeQ8AgPzIewAA5EfeAwAgP/IeAAD5kfcAAMiPvAcAQH7kPQAA8iPvAQCQH3kPAID8dJQA93Zk60DLrTyo+6dUGBwaHBqwAvIe9xfUfrwlVntkzxxqCw4NDg1YB+fzAQCQH3kPAID8yHsAAORH3gMAID/yHgAA+ZH3gISysrJ8fHzS0tLMU9LS0qpUqbJt2zaKAzgmnscDJBQeHm40GkeOHDlu3DghRPXq1QsLC2/duhUREUFxAMdE/x6QU2JioslkysvLE0Lk5eWZTKbExETKAjgs8h6Q08SJE7Xa/3OAT5o0ibIADou8B6SVkJDg4uIihNDr9QkJCRQEcGTkPSCt0l18OveAgyPvAZmpXXw69wC4Px+Q2dixY3Nzc8eOHUspAAdXprwfNT/H7nasbdcX7XGzU8d0pFHasumbX7a7bW7UXz972yi72+wpvRbT3mxZZlSk3W1zdPNm9rjZXdPXV8h6ytq/jxv0lJ1VyO42WIgFq7+S/Z8IGfR7NI4iWFrG9wsogu3rODnezjbYDouckzyjolbF9XsAAORH3gMAID/yHgAA+ZH3AADIj7wHAEB+5D0AAPIj7wEAkB95DwAWMXt+WuOWf4/ucuLUOY13m59+OUZlUCnIewAA5EfeAwAgP/IeAAD5kfcAYA2KolAEVCLyHgCsIe/KdYqASkTeA4ClXLiYl28oUF9v2/4tBUElIu8BwFLy8wtGjJm155uDqYs/XbZygxDi9NkLlAWVgrwHAEvx8nT/7cTvvQeM+SLz691fLu3ft/OQV5Nyj52mMrA+HSUAAAsJ8K+2N3uF+W36ytnHjp+tVdOPysD6yHsAsJ4mgfUoAioF5/MBAJAfeQ8AFjFhTMxvB9dTB9gI8h4AAPmR9wAAyI+8BwBAfuQ9AADyI+9x2+zZsymCWVZWFkWwQdnZ2ew+UD7kPW6bNGmSRqPp1q1bOZY9dvxsr6jRfg06BzSKiBw07uTp8/Zejf79+7u6us6aNYuGYSNSUlL0en1UVBS7D5QPeY/bhg0bJoTIzMx80NRXFKVX1Oi2ocG5BzLOHt7cKqRp5KBx9l6NBQsW6HS6xMRENzc3Ur9ypaSkuLq6JiUlOTs7p6amsvtA+ZD3uG3p0qVa7e32YE59g8Fw3wXP/+fy8ZO/v/n6C37Vquj1LvHjh9WrU+OvfINdVyMmJsbNzc1oNBYWFppT32Qy0U6sxmQymaPOaDQajUYPD4/o6Gh2Hygf8t6G7MtM01SqkpKS0tuTmZkZEhJy382uXat67VrVh4xIOnDwiKIoWq1209r5nh7u911w4Se/amxYXl6eup1q6ickJMTGxtJKrSYmJiYxMVGNOnXKpUuXbKqFLPzkV0fe/VWHc2ml9oW8tyFtu8Yolcrcv1dFREQcPHjwvput0Wi+ylymd3EO7zOyRmDXoSOmnT33R1n2d+TgYMWG+fnd/lETvV6v1+sTExOXLFlCK7WatLS0hIQEFxcXvV6vTvH397epFjJycLAj735082a0UvtC3uO22NhYc/8+IiJCUZTMzExPT8/7LmgyFdUM8EtbnJR3OnvT2vkB/r4t2g7Iu3LdrquRlpZWUFCgJn1CQkJhYeGkSZNcXFxoJ1bj7Ow8efJko9E4depUNfby8/NXrVrF7gPlQ97jtuXLl4tSSV/2Bddv2tlrwGghhFarbRsanJL4WsuQpttz9tl1NeLi4kwmkznpaR6VyBx7JpNp1KhR7D5QPuQ9bps5c+aDJr2qQ/vQH386unDJ2pt/GYqKirN2fnfk6KlWj9j3ub709HSj0UjS2w419tauXcvuA+WjowRQlTvbAvx9v1yfOinx/fjpizQaTXDQQ2tWJNv7j3xHRETQJGxQeHg4uw+UD3mPCtCmVfOszz+gDgBgszifDwCA/Mh7AADkR94DACA/8h4AAPmR9wAAyI+8BwBAfuQ9AADyI+8BAJAfeQ8AgPzIewAA5EfeA4A1/JVv2Jq1N3LQuPWbdlINWB/j5wOApazbuGPWOx8dPnrK28vj0uWrOp2uRVAjyoJKQf8eACzisw3b+0WPf+ThJp9+lBL3yrM6nW5kbNT+3R9H9g6jOLA++vcAYBEJyYsje4ctTY0XQvTs2t7NTf9m/HvjR8cE+PtSHFgf/XsAqHgGQ+Hh3JMDn/n7F+sHRIabTEWHDh+nOKgU5D0AVLwLF/OEEDUC/MxTAvx9tVrtmd//oDioFOQ9AFS8GgHVhBAXL10xT7mcd72kpESdDlgfeQ8AFc/D3a1p4/rpG7LNU9I3ZOt0TiHBjSkOKgX36wGARSRNfvnZIZNHjp39dM8OPx/6bcqMRS8P7Ventj+VQaUg7wHAIgb2i3Bycpo9P23l6i116wS8NW7YpLFDKAsqC3kPAJbSv2/n/n07UwfYAq7fAwAgP/IeAAD5lfV8/oLVX1EsQAiR8f0C+9rgnWsOhD0XyheHCpeTPIMi2JEy5X3qmI72tVeKogwdOnTRokWurq58x6hAU3ottrttntpbs+OT/Xx3qFhd09fb1waTC3Kez1+0aNGnn36akpLCMQkAEOSCrHk/ceLEgoKCmTNn0sQBAIJckDLvFy5cqL5wdnZOTEyklQOAgyMXhJR5P3HixJs3bwohCgsL6eIDAMgFIV/ev//++xqNxvzWyckpKSmJtg4ADotcUMmW9xMmTCgpKfHz83N2dq5Ro4aTk9OMGTwxAgCOi1xQSZX3O3bscHNz++CDDy5fvqzVak+fPr1s2TJvb+8vv/ySFg8ADohcMJNq/PxOnTrl5eWVnvLcc88999xziqLQ6AHAAZELZg4xnm7pKzcAADhgLjB+PgAA8iPvAQCQn7R5rygKp/EBAGYOngv07wEAkJ9U9+fDQo7smUMRAA4N2DWNrM8k6PX6mzdvuri48B3D0Q9yjbSHOfBAHDwXOJ8PAID8yHsAAORH3gMAID+exwMAOASexwMAAJIj7wEAkB95DwCA/Mh7AADkR94DACA/7s8HADgE7s8HAACSI+8BAJAfeQ8AgPzIewAA5Mf9egAAh8D9egAAQHLkPQAA8iPvAQCQH3kPAID8yHsAAORH3gMAID+exwMAOASexwMAAJIj7wEAkB95DwCA/Mh7AADkR94DACA/8h4AAPnxPB4AwCHwPB4AAJAceQ8AgPzIewAA5EfeAwAgP/IeAAD5kfeAhLKysry9vZcvX26esnz5ch8fn23btlEcwDFpFEWRcse0Wm1xcTGP5MFheXh4aLVaFxeXq1ev+vr63rp1q6SkJD8/n8rAYTl4LvD8PSCnWbNmaTSaq1evCiGuXr2q0WhSUlIoCxyZg+eCtP17jUbaXQPKyNPT09yh9/Dw+Ouvv6gJHJmD5wLX7wFppaSkeHl5CSG8vLySk5MpCODI6N8DMlO7+HTuAUH/nhYASCwlJcXT05POPQBd5f55peSWhdbsrLPgyjVaF5oOKlZJcYklVhv7UuypU6eGxw630Pq1TvQZUMHIBUttYeWe3MhdprHQ/zkseR9mUbOXuFKACrZo3Bq7u3FYUcSr857ju0PFIhcsRFfpW9Cs57d21ha3tOGAhCX0GBJmXxu8ZcVOvjVYArlgCZyLAwBAfuQ9AADyI+8BAJAfeQ8AgPzIewAA5EfeAwAgP/IeAAD5kfcAAMiPvAcAQH7kPQAA8iPvAQCQH3kPAID8yHsAAORH3gMAID958j523AzPwKcMBYV3TO/30vi6oT0UhV+sh6OYkDAuqE2jgsKCO6a/PHrY451acyzAcZALpcmT94Miu+UbCr7Y/nXpiQWFxi937h3QJ1yj0dD04SD69ow0FBh27t5eemJhYeGur3b26taHYwGOg1woTZ6879Cuda2A6ms3ZZWemJnzjaGgcEDvcNo9HMdjbdoF+NfY/OXG0hN3fZ1TUFjQs1sf6gPHQS6UJk/ea7XagU+Hb8nek2/4+zTm+q0769ep+VjrFrR7ONBRrdX27tZnx65sQ4HBPDFz+xe1a9VpFdKa+sChjgVy4e9qyLQzgyK7GQoKN2d/pb4tKiretO2rAX3o3MPhPN3rmYLCgu05t7s1RcVF2Tu39aJzD8dDLphJlfdtHmneuGG9tRuz1bc53xy49ueNAb270OLhaEKCH2lY/6HNmbdP6X+7b++fN/4k7+GAyAUz2Z7Hey6y6xfb9/yVbxBCrPtiR8N6tdo80pwWDwfUp0ffnbu35xvyhRBfZn9Rt069kOBHKAscELmgki7v+3YtNN7auG23oiiff7lrYJ8I2joc09M9I41GY/bOTEVRtu3I7N3taWoCx0QuqHSS7U+zwAatWjRduzGrYb1a/7l4mYv3cFiNGgYGB7XY/OWmurXrXbz0Byfz4bDIBZVseS+EGBTZLX72ooDq1QIb1m3VoiltHQ6rb89n5i6Y5VfNr0G9hsFBPKUCx0UuCCnH0322b9dbJtOy1RsG0rmHY+vdo6/JZPp3xure3encw6GRC0LKvK9T0/9/Hm9VUlLCyXw4uJoBNR9r83hJSQnD7MDBkQtCyvP5QoicjCW0b0AI8elH6ygCIMgFfh8PAABHQN4DACA/8h4AAPmR9wAAyI+8BwBAfuQ9AADyI+8BAJAfeQ8AgPzIewAA5EfeAwAgPxsYT1cp4msAhBBKSQlFAIQgFyyisvNe45y79Sk7q5nGmXaDCqfVar5cudvutpkvDhWPXLDQNiqKQusCAEBuXL8HAEB+5D0AAPIj7wEAkB95DwCA/Mh7AADkR94DACA/8h4AAPmR9wAAyI+8BwBAfuQ9AADyI+8BAJDf/wJ//98xPp5KdwAAAABJRU5ErkJggg==;" parent="1" vertex="1">
          <mxGeometry x="71" y="1198" width="677" height="655" as="geometry" />
        </mxCell>
        <mxCell id="JKJRR5ncDJB6F3wZXvhk-2" value="" style="rounded=0;whiteSpace=wrap;html=1;fillColor=none;strokeWidth=4;strokeColor=light-dark(#ed333b, #ededed);" parent="1" vertex="1">
          <mxGeometry x="563" y="1193" width="199" height="665" as="geometry" />
        </mxCell>
        <mxCell id="JKJRR5ncDJB6F3wZXvhk-3" value="" style="rounded=0;whiteSpace=wrap;html=1;fillColor=none;strokeWidth=4;strokeColor=light-dark(#ed333b, #ededed);" parent="1" vertex="1">
          <mxGeometry x="52" y="1198" width="199" height="665" as="geometry" />
        </mxCell>
      </root>
    </mxGraphModel>
  </diagram>
</mxfile>
